<svg width="14" height="14" viewBox="0 0 14 14" fill="none" xmlns="http://www.w3.org/2000/svg">
<path fill-rule="evenodd" clip-rule="evenodd" d="M7.0006 0.599976C5.26245 0.599976 5.04431 0.607576 4.36164 0.638643C3.6803 0.669843 3.21523 0.777711 2.80829 0.935979C2.38735 1.09945 2.03028 1.31812 1.67454 1.67399C1.31854 2.02972 1.09987 2.38679 0.935869 2.8076C0.7772 3.21467 0.669199 3.67987 0.638532 4.36095C0.607999 5.04362 0.599998 5.26189 0.599998 7.00004C0.599998 8.73819 0.607732 8.95566 0.638666 9.63834C0.669999 10.3197 0.777867 10.7847 0.936002 11.1917C1.0996 11.6126 1.31827 11.9697 1.67414 12.3254C2.02975 12.6814 2.38682 12.9006 2.80749 13.0641C3.21469 13.2224 3.6799 13.3302 4.3611 13.3614C5.04378 13.3925 5.26178 13.4001 6.9998 13.4001C8.73808 13.4001 8.95555 13.3925 9.63823 13.3614C10.3196 13.3302 10.7852 13.2224 11.1924 13.0641C11.6132 12.9006 11.9697 12.6814 12.3253 12.3254C12.6813 11.9697 12.9 11.6126 13.064 11.1918C13.2213 10.7847 13.3293 10.3195 13.3613 9.63847C13.392 8.9558 13.4 8.73819 13.4 7.00004C13.4 5.26189 13.392 5.04375 13.3613 4.36108C13.3293 3.67974 13.2213 3.21467 13.064 2.80773C12.9 2.38679 12.6813 2.02972 12.3253 1.67399C11.9693 1.31798 11.6133 1.09931 11.192 0.935979C10.784 0.777711 10.3186 0.669843 9.63729 0.638643C8.95462 0.607576 8.73728 0.599976 6.9986 0.599976H7.0006ZM6.42643 1.7533C6.59683 1.75304 6.78697 1.7533 7.00057 1.7533C8.70939 1.7533 8.91192 1.75944 9.58673 1.7901C10.2107 1.81864 10.5494 1.9229 10.775 2.01051C11.0737 2.12651 11.2866 2.26517 11.5105 2.48918C11.7345 2.71318 11.8732 2.92652 11.9894 3.22518C12.077 3.45052 12.1814 3.78919 12.2098 4.4132C12.2405 5.08787 12.2472 5.29054 12.2472 6.99856C12.2472 8.70658 12.2405 8.90924 12.2098 9.58392C12.1813 10.2079 12.077 10.5466 11.9894 10.7719C11.8734 11.0706 11.7345 11.2833 11.5105 11.5071C11.2865 11.7311 11.0738 11.8698 10.775 11.9858C10.5497 12.0738 10.2107 12.1778 9.58673 12.2063C8.91206 12.237 8.70939 12.2437 7.00057 12.2437C5.29162 12.2437 5.08908 12.237 4.41441 12.2063C3.7904 12.1775 3.45173 12.0733 3.226 11.9857C2.92733 11.8697 2.71399 11.731 2.48999 11.507C2.26599 11.283 2.12732 11.0702 2.01105 10.7714C1.92345 10.5461 1.81905 10.2074 1.79065 9.58339C1.75998 8.90871 1.75385 8.70604 1.75385 6.99696C1.75385 5.28787 1.75998 5.08627 1.79065 4.4116C1.81918 3.78759 1.92345 3.44892 2.01105 3.22332C2.12705 2.92465 2.26599 2.71131 2.48999 2.48731C2.71399 2.26331 2.92733 2.12464 3.226 2.00837C3.4516 1.92037 3.7904 1.81637 4.41441 1.7877C5.00482 1.76104 5.23362 1.75304 6.42643 1.7517V1.7533ZM10.4169 2.81598C9.99287 2.81598 9.64887 3.15959 9.64887 3.58372C9.64887 4.00773 9.99287 4.35173 10.4169 4.35173C10.8409 4.35173 11.1849 4.00773 11.1849 3.58372C11.1849 3.15972 10.8409 2.81598 10.4169 2.81598ZM7.00061 3.71332C5.18552 3.71332 3.71391 5.18494 3.71391 7.00002C3.71391 8.81511 5.18552 10.2861 7.00061 10.2861C8.8157 10.2861 10.2868 8.81511 10.2868 7.00002C10.2868 5.18494 8.8157 3.71332 7.00061 3.71332ZM7.00058 4.86667C8.17873 4.86667 9.13394 5.82175 9.13394 7.00002C9.13394 8.17817 8.17873 9.13338 7.00058 9.13338C5.82231 9.13338 4.86723 8.17817 4.86723 7.00002C4.86723 5.82175 5.82231 4.86667 7.00058 4.86667Z" fill="#42BDEC"/>
</svg>
