<svg width="12" height="13" viewBox="0 0 12 13" fill="none" xmlns="http://www.w3.org/2000/svg">
<path d="M10.2064 1.85313C9.65621 1.2632 9.00135 0.795569 8.27992 0.477436C7.55842 0.159303 6.78469 -0.00297012 6.00375 4.11533e-05C4.95977 0.00112745 3.93432 0.29414 3.03018 0.849732C2.12603 1.40532 1.37492 2.204 0.852038 3.16576C0.329156 4.12753 0.052878 5.21866 0.0508518 6.3298C0.048833 7.44102 0.321148 8.53322 0.840525 9.49715L0 12.78L3.15197 11.9014C4.02233 12.4167 5.0003 12.6914 5.99625 12.7001C7.57951 12.7002 9.09869 12.0346 10.223 10.8483C11.3475 9.66209 11.9861 8.0511 12 6.36606C11.9947 5.52522 11.8335 4.69376 11.5258 3.91934C11.218 3.14492 10.7696 2.44277 10.2064 1.85313ZM6.00375 11.6058C5.11647 11.6065 4.24541 11.3526 3.48218 10.871L3.30206 10.7512L1.4334 11.2784L1.92871 9.3374L1.80863 9.13771C1.17017 8.0408 0.931887 6.73269 1.13893 5.46124C1.34597 4.18984 1.98395 3.04339 2.93201 2.23911C3.88007 1.43482 5.07235 1.02856 6.283 1.09727C7.49366 1.16598 8.63865 1.7049 9.50094 2.61194C10.4435 3.59296 10.9831 4.93111 11.0019 6.33411C10.99 7.73663 10.4582 9.07741 9.5221 10.0647C8.58612 11.052 7.32158 11.6059 6.00375 11.6058ZM8.71294 7.66003C8.56285 7.58016 7.8349 7.19676 7.69981 7.14883C7.56473 7.10091 7.45966 7.06896 7.3621 7.22871C7.21531 7.44285 7.05741 7.64813 6.88931 7.84374C6.80675 7.95557 6.7167 7.96356 6.5666 7.84374C5.71084 7.48383 4.9979 6.82087 4.54784 5.96669C4.39024 5.68713 4.69794 5.7031 4.98311 5.10404C5.0042 5.06083 5.01516 5.01291 5.01516 4.96426C5.01516 4.91562 5.0042 4.86769 4.98311 4.82448C4.98311 4.7446 4.6454 3.96183 4.52533 3.65031C4.40525 3.3388 4.28518 3.38673 4.18762 3.37874H3.89493C3.8191 3.37998 3.74439 3.39844 3.6758 3.43287C3.6072 3.46731 3.54631 3.51693 3.49719 3.57843C3.3288 3.7527 3.19746 3.96336 3.11202 4.19621C3.02657 4.42906 2.98902 4.6787 3.00188 4.92832C3.04893 5.52586 3.26036 6.09537 3.60976 6.56575C4.24931 7.58479 5.12578 8.4103 6.15385 8.96199C6.69306 9.29698 7.3197 9.43709 7.93996 9.36136C8.14649 9.31775 8.34214 9.22837 8.51407 9.09898C8.68608 8.96966 8.83054 8.8032 8.93809 8.61054C9.03775 8.37539 9.06912 8.11396 9.02814 7.85972C8.9606 7.77984 8.86304 7.73991 8.71294 7.66003Z" fill="#42BDEC"/>
</svg>
